<?xml version="1.0" encoding="iso-8859-1"?>
<!-- Generator: Adobe Illustrator 18.1.1, SVG Export Plug-In . SVG Version: 6.00 Build 0)  -->
<svg version="1.1" id="Layer_1" xmlns="http://www.w3.org/2000/svg" xmlns:xlink="http://www.w3.org/1999/xlink" x="0px" y="0px"
	 viewBox="0 0 28 79.868" style="enable-background:new 0 0 28 79.868;" xml:space="preserve">
<g>
	<path d="M22,30.964V2.129c0-1.955-2.382-2.873-3.68-1.41L7.674,12.565C7.329,12.954,7,13.456,7,13.976v16.782
		c-2,0.603-3,2.222-3,4.131v8.493l20.278-8.493C24.278,33.168,23,31.682,22,30.964z"/>
	<path d="M0,50.343v24.121c0,3.172,2.783,5.404,5.955,5.404h17.264c3.172,0,4.781-2.232,4.781-5.404V39.135L0,50.343z M17,71.868h-2
		V49.995l2-1.149V71.868z M25,70.868h-4V49.995l4-2.297V70.868z"/>
</g>
</svg>
