<?xml version="1.0" encoding="iso-8859-1"?>
<!-- Generator: Adobe Illustrator 18.1.1, SVG Export Plug-In . SVG Version: 6.00 Build 0)  -->
<svg version="1.1" id="Layer_1" xmlns="http://www.w3.org/2000/svg" xmlns:xlink="http://www.w3.org/1999/xlink" x="0px" y="0px"
	 viewBox="0 0 66.959 80" style="enable-background:new 0 0 66.959 80;" xml:space="preserve">
<g>
	<path d="M16.006,25.022c-0.1-0.15-0.171-0.336-0.171-0.491V8.489H7.799V24.53c0,0.156-0.071,0.341-0.171,0.491
		C3.171,26.713,0,31.018,0,36.069v0.421v42.205C0,80,1.073,80,1.306,80h21.023c0.232,0,1.306,0,1.306-1.305V36.49v-0.421
		C23.634,31.018,20.463,26.713,16.006,25.022z M10.164,27.011c-2.225,1.039-6.255,4.947-7.408,9.776
		c-0.049-0.374-0.082-0.753-0.082-1.14C2.673,31.247,5.93,27.609,10.164,27.011z M21.194,64.916H2.44V45.396h18.754V64.916z
		 M16.228,7.344H7.406C7.215,7.329,7.061,7.15,7.061,6.927V3.234c0-0.232,0.166-0.421,0.369-0.421c0.203,0,0.559,0,0.792,0h7.191
		c0.232,0,0.588,0,0.792,0c0.203,0,0.369,0.19,0.369,0.421v3.694C16.573,7.15,16.42,7.329,16.228,7.344z M14.43,1.629H9.204V0h5.226
		V1.629z"/>
	<path d="M57.967,77.837c0,0,0.286,2.163-4.582,2.163H32.84c-4.582,0-4.582-2.163-4.582-2.163c0-0.42,0.344-0.764,0.764-0.764
		h28.181C57.623,77.073,57.967,77.416,57.967,77.837z M66.959,62.386c0,3.548-2.877,6.424-6.425,6.424
		c-1.568,0-3.005-0.563-4.121-1.497c-2.234,5.278-7.308,8.427-8.221,8.427H38.036c-1.177,0-9.279-5.235-9.279-13.524v-9.279
		c0-1.178,0.964-2.141,2.141-2.141H55.33c1.177,0,2.141,0.964,2.141,2.141v3.799c0.91-0.495,1.954-0.776,3.063-0.776
		C64.082,55.962,66.959,58.838,66.959,62.386z M38.437,72.819h1.986c-1.751-1.19-5.326-4.616-5.326-8.924v-5.767h19.452v-4.409
		h-22.87v8.498C31.679,67.939,36.963,72.112,38.437,72.819z M63.602,62.386c0-1.694-1.373-3.068-3.068-3.068
		c-1.691,0-3.062,1.369-3.067,3.059c0,0.004,0,0.008,0,0.012c0.001,1.693,1.374,3.065,3.067,3.065
		C62.228,65.454,63.602,64.08,63.602,62.386z M44.025,40.463c0,3.127-3.485,4.747-0.711,7.873c-0.273-3.634,3.477-4.619,3.748-8.166
		c0.276-3.594-5.443-3.744-6.087-7.579C38.664,36.498,44.025,37.142,44.025,40.463z"/>
</g>
</svg>
