<?xml version="1.0" encoding="iso-8859-1"?>
<!-- Generator: Adobe Illustrator 18.1.1, SVG Export Plug-In . SVG Version: 6.00 Build 0)  -->
<svg version="1.1" id="Layer_1" xmlns="http://www.w3.org/2000/svg" xmlns:xlink="http://www.w3.org/1999/xlink" x="0px" y="0px"
	 viewBox="0 0 52.015 80" style="enable-background:new 0 0 52.015 80;" xml:space="preserve">
<g>
	<path d="M3.469,3.807c3.737,2.724,7.474,5.447,11.211,8.171c0.02-0.071,0.041-0.141,0.065-0.21C10.541,7.845,6.339,3.922,2.137,0
		c0,0.001-0.001,0.002-0.001,0.004C1.667,1.384,2.189,2.874,3.469,3.807z"/>
	<path d="M2.812,8.961c3.921,1.183,7.842,2.366,11.763,3.55c0.009-0.072,0.019-0.143,0.032-0.214
		c-4.66-2.155-9.321-4.31-13.982-6.464c0,0.001,0,0.002,0,0.004C0.379,7.191,1.3,8.505,2.812,8.961z"/>
	<path d="M2.704,13.929c3.949-0.293,7.898-0.587,11.846-0.88c-0.002-0.072-0.002-0.144,0-0.216c-4.85-0.36-9.7-0.72-14.55-1.08
		c-0.018,0.606,0.266,1.19,0.782,1.605C1.299,13.773,1.998,13.98,2.704,13.929z"/>
	<path d="M3.03,18.938c3.859-1.784,7.718-3.568,11.577-5.352c-0.013-0.071-0.024-0.142-0.032-0.214
		c-4.769,1.439-9.538,2.878-14.307,4.317c0,0.001,0,0.001,0,0.001c0.064,0.534,0.436,1.005,0.991,1.255
		C1.814,19.195,2.478,19.193,3.03,18.938z"/>
	<path d="M2.511,24.517c0.54,0.121,1.114-0.024,1.491-0.376c3.581-3.342,7.161-6.685,10.742-10.026
		c-0.024-0.07-0.045-0.14-0.065-0.21c-4.418,3.22-8.837,6.44-13.255,9.66c0,0,0,0.001,0,0.001
		C1.552,24.03,1.971,24.396,2.511,24.517z"/>
	<path d="M46.181,53.369v-1.342c-2.639-15.474-5.246-24.905-8.677-30.925c-3.413-5.99-7.83-9.022-13.759-9.382
		c-0.534-0.912-1.521-1.526-2.654-1.526c-1.699,0-3.076,1.377-3.076,3.076c0,0.854,0.349,1.627,0.911,2.184v3.151h-1.562v3.659
		h-1.494c-0.684,0-1.239,0.555-1.239,1.239v0.124c0,0.684,0.555,1.239,1.239,1.239h0.248c-0.692,2.345-3.051,4.541-4.742,6.228
		c-2.05,2.046-3.296,5.091-3.296,9.345c0,13.112,10.006,19.717,8.502,31.579c-0.459,3.616-4.464,3.035-5.62,5.723
		C10.346,79.175,11.397,80,12.966,80h16.25c1.568,0,2.62-0.823,2.003-2.259c-1.157-2.687-5.162-2.107-5.62-5.723
		c-1.505-11.868,8.502-18.46,8.502-31.579c0-4.254-1.246-7.299-3.296-9.345c-1.69-1.687-4.05-3.883-4.742-6.228h0.249
		c0.684,0,1.239-0.555,1.239-1.239v-0.124c0-0.684-0.555-1.239-1.239-1.239h-1.494v-3.659h-1.561v-3.151
		c0.195-0.194,0.363-0.414,0.501-0.654c9.881,0.697,14.763,10.304,19.355,37.227v1.342c-2.408,2.443-5.834,9.199-5.834,15.304
		c0,7.616,3.299,11.327,7.369,11.327c4.069,0,7.369-3.711,7.369-11.327C52.015,62.568,48.589,55.812,46.181,53.369z M18.669,31.309
		c-2.403,1.802-4.364,5.13-4.364,8.902c0,11.627,4.016,17.412,4.541,28.003c0.279,5.583-0.709,5.879-0.709,0
		c0-9.025-6.309-15.765-6.309-28.003c0-3.772,1.105-6.473,2.923-8.287C16.845,29.835,20.987,29.571,18.669,31.309z M44.466,77.83
		c-1.572,0-2.987-0.761-3.968-2.302c0.694,0.415,1.47,0.623,2.289,0.623c2.965,0,5.421-2.704,5.368-8.253
		c-0.061-6.538-0.814-8.709-0.814-8.709c1.503,2.114,2.494,5.941,2.494,10.389C49.835,75.127,47.431,77.83,44.466,77.83z"/>
</g>
</svg>
