<?xml version="1.0" encoding="iso-8859-1"?>
<!-- Generator: Adobe Illustrator 18.1.1, SVG Export Plug-In . SVG Version: 6.00 Build 0)  -->
<svg version="1.1" id="Layer_1" xmlns="http://www.w3.org/2000/svg" xmlns:xlink="http://www.w3.org/1999/xlink" x="0px" y="0px"
	 viewBox="0 0 97.258 59.264" style="enable-background:new 0 0 97.258 59.264;" xml:space="preserve">
<g>
	<g>
		<polygon points="63.522,4.295 65.586,0 52.919,0 54.983,4.295 		"/>
		<path d="M75.29,11.994V2.976C75.29,1.332,73.958,0,72.314,0h-3.059l-3.202,6.665c-0.275,0.573-0.855,0.937-1.49,0.937h-10.62
			c-0.636,0-1.215-0.364-1.49-0.937L49.25,0h-3.059c-1.644,0-2.976,1.332-2.976,2.976v9.018H75.29z"/>
		<path d="M69.62,43.497c0-4.814,2.211-9.122,5.67-11.962v-3.063c1.053-0.459,1.789-1.507,1.789-2.729v-2.275
			c0-1.222-0.737-2.27-1.789-2.729v-5.438H43.215v5.438c-1.053,0.459-1.789,1.507-1.789,2.729v2.275c0,1.222,0.737,2.27,1.789,2.729
			v4.564c-1.053,0.459-1.789,1.507-1.789,2.729v2.275c0,1.222,0.737,2.27,1.789,2.729v4.564c-1.053,0.459-1.789,1.507-1.789,2.729
			v2.275c0,1.222,0.737,2.27,1.789,2.729v2.462c0,1.644,1.332,2.976,2.976,2.976h26.122c1.644,0,2.976-1.332,2.976-2.976v-0.07
			C71.831,52.619,69.62,48.311,69.62,43.497z M59.252,47.758c-3.949,0-7.151-4.86-7.15-10.855c0-5.995,3.201-10.854,7.15-10.854
			c3.949,0,7.151,4.86,7.151,10.854C66.403,42.898,63.201,47.758,59.252,47.758z"/>
		<path d="M85.093,31.331c-6.719,0-12.166,5.447-12.166,12.166c0,6.719,5.447,12.166,12.166,12.166
			c6.719,0,12.165-5.447,12.165-12.166C97.258,36.778,91.812,31.331,85.093,31.331z M76.234,43.497c0-4.885,3.974-8.859,8.859-8.859
			C89.978,34.638,76.234,48.382,76.234,43.497z"/>
		<path d="M89.762,14.354c-3.775,0-6.835,3.06-6.835,6.835c0,3.775,3.06,6.835,6.835,6.835c3.775,0,6.835-3.06,6.835-6.835
			C96.597,17.414,93.537,14.354,89.762,14.354z M85.573,21.189c0-2.31,1.88-4.19,4.189-4.19
			C92.073,16.999,85.573,23.499,85.573,21.189z"/>
	</g>
	<path d="M37.705,20.264c0.934-1.888-0.783-4.642-3.836-6.152l-5.785-2.861l-7.137-2.386l-0.698,1.41l6.229,4.224l5.785,2.86
		l-1.286,2.601l-5.785-2.861l-7.137-2.386l-0.698,1.41l6.229,4.224l5.785,2.861l-1.287,2.601l-5.785-2.861l-7.137-2.386l-0.698,1.41
		l6.229,4.224l5.785,2.861l-1.286,2.601L19.406,28.8l-7.137-2.386l-0.698,1.41l6.228,4.224l5.785,2.86l-1.287,2.602l-5.785-2.861
		l-7.137-2.386l-0.698,1.41l6.229,4.224l5.785,2.861l-1.287,2.601l-5.785-2.861l-7.137-2.386l-0.698,1.411l6.229,4.224l5.785,2.861
		l-1.286,2.601l-5.785-2.861l-7.137-2.386l-0.698,1.41l6.229,4.224l5.785,2.86l-1.287,2.601l-5.785-2.861l-7.137-2.386L0,51.221
		l6.229,4.224l5.785,2.861c3.052,1.51,6.283,1.203,7.217-0.685c0,0,10.374-12.431,12.712-17.177
		C34.237,35.784,37.705,20.264,37.705,20.264z M25.428,44.662c-0.303,0.613-1.046,0.864-1.659,0.561
		c-0.613-0.303-0.864-1.046-0.561-1.659l5.74-11.608c0.303-0.613,1.046-0.864,1.659-0.561c0.613,0.303,0.865,1.046,0.561,1.659
		L25.428,44.662z"/>
</g>
</svg>
