<?xml version="1.0" encoding="iso-8859-1"?>
<!-- Generator: Adobe Illustrator 18.1.1, SVG Export Plug-In . SVG Version: 6.00 Build 0)  -->
<svg version="1.1" id="Layer_1" xmlns="http://www.w3.org/2000/svg" xmlns:xlink="http://www.w3.org/1999/xlink" x="0px" y="0px"
	 viewBox="0 0 75.682 80" style="enable-background:new 0 0 75.682 80;" xml:space="preserve">
<g>
	<path d="M40.855,14.45c-1.862,2.939-4.166,2.939-6.028,0C23.552-3.333,12.506,10.452,2.328,9.889
		c-8.741-0.481,8.475,11.063,29.217,11.734c3.478,0.112,9.112,0.112,12.591,0C64.88,20.952,82.094,9.408,73.353,9.889
		C63.175,10.452,52.13-3.333,40.855,14.45z"/>
	<circle cx="37.841" cy="5.323" r="5.323"/>
	<g>
		<g>
			<g>
				<path d="M38.347,75.623c-0.377,0.141-0.764,0.295-1.13,0.469L37.266,80h1.15l0.055-4.42
					C38.43,75.595,38.388,75.609,38.347,75.623z"/>
				<path d="M42.655,74.227c-0.538,0.181-1.073,0.348-1.597,0.509c0.391,0.314,0.739,0.677,1.016,1.102
					c0.37,0.572,0.531,1.192,0.625,1.859c0.008,0.058,0.003,0.086,0.067,0.086c0.089,0,0.178,0,0.267,0c0.191,0,0.381,0,0.572,0
					c0.084,0,0.134,0.017,0.131-0.078c-0.003-0.088,0.008-0.178,0.009-0.266c0.003-0.189-0.003-0.378-0.02-0.567
					C43.63,75.841,43.235,74.97,42.655,74.227z"/>
			</g>
			<g>
				<path d="M24.792,38.514c-1.292-0.556-2.647-1.316-3.462-2.5c-0.7-1.016-0.872-2.428-0.391-3.572
					c0.383-0.908,1.144-1.589,1.972-2.086c0.877-0.527,1.848-0.883,2.828-1.158c1.128-0.317,2.278-0.53,3.438-0.684V25.87
					c-1.558,0.164-3.109,0.431-4.614,0.875c-1.408,0.414-2.795,0.995-3.969,1.891c-1.055,0.803-1.919,1.87-2.353,3.131
					c-0.477,1.383-0.469,2.942,0.009,4.322c0.806,2.327,2.906,3.85,5.052,4.855c1.211,0.566,2.472,1.016,3.756,1.394
					c0.484-0.25,1.006-0.492,1.573-0.72c0.959-0.386,1.98-0.73,3.181-1.066c-0.87-0.183-1.738-0.378-2.598-0.597
					C27.714,39.572,26.214,39.128,24.792,38.514z"/>
				<path d="M36.385,9.441l0.373,29.952c0.584-0.119,1.159-0.233,1.72-0.344c0.15-0.028,0.3-0.058,0.45-0.086l0.37-29.522H36.385z"
					/>
			</g>
		</g>
	</g>
	<g>
		<path d="M51.73,49.181c-0.292-1.127-0.936-2.116-1.777-2.913c-0.503-0.477-1.063-0.887-1.653-1.247
			c-1.55,0.414-3.109,0.756-4.655,1.067c0.719,0.231,1.428,0.492,2.112,0.802c0.653,0.297,1.283,0.647,1.85,1.088
			c0.533,0.414,1.012,0.92,1.28,1.548c0.197,0.464,0.258,0.984,0.217,1.492c-0.019,0.238-0.058,0.473-0.12,0.698
			c-0.188,0.686-0.569,1.281-1.07,1.781c-1.064,1.056-2.502,1.73-3.88,2.273c-2.936,1.159-6.033,1.833-9.022,2.83
			c-1.425,0.477-2.858,1.008-4.162,1.759c-1.202,0.694-2.309,1.619-2.931,2.881c-0.394,0.8-0.558,1.684-0.502,2.561
			c0.028,0.447,0.113,0.892,0.253,1.322c0.433,1.319,1.375,2.344,2.525,3.089c0.677,0.436,1.405,0.784,2.153,1.084
			c0.727-0.625,1.506-1.123,2.256-1.53c-0.283-0.114-0.566-0.23-0.845-0.352c-0.695-0.302-1.383-0.638-2.022-1.048
			c-0.591-0.38-1.169-0.855-1.498-1.487c-0.173-0.33-0.277-0.702-0.312-1.078c-0.027-0.295-0.013-0.594,0.05-0.88
			c0.159-0.714,0.664-1.283,1.23-1.719c1.175-0.908,2.609-1.442,4.008-1.902c3.098-1.019,6.302-1.695,9.367-2.819
			c2.619-0.959,5.453-2.359,6.72-5c0.367-0.766,0.577-1.613,0.616-2.466C51.946,50.4,51.885,49.778,51.73,49.181z"/>
		<g>
			<path d="M36.86,47.442l0.098,7.927c0.33-0.095,0.658-0.189,0.983-0.283c0.266-0.075,0.528-0.152,0.789-0.227l0.098-7.827
				C38.181,47.162,37.522,47.297,36.86,47.442z"/>
			<path d="M37.058,63.364l0.066,5.239c0.486-0.198,0.967-0.386,1.442-0.567l0.064-5.13C38.099,63.056,37.575,63.206,37.058,63.364z
				"/>
			<path d="M45.544,60.814c-0.031,0.012-0.064,0.025-0.095,0.036c-1.1,0.403-2.211,0.75-3.312,1.07
				c0.244,0.103,0.486,0.208,0.723,0.322c0.661,0.319,1.317,0.68,1.869,1.169c0.522,0.464,0.938,1.07,1.027,1.778
				c0.092,0.714-0.105,1.461-0.53,2.039c-0.422,0.572-1.022,1.006-1.631,1.359c-0.648,0.378-1.339,0.684-2.031,0.973
				c-1.47,0.617-2.983,1.128-4.439,1.78c-1.313,0.586-2.627,1.294-3.634,2.339c-0.917,0.953-1.512,2.191-1.55,3.522
				c-0.005,0.169,0.006,0.336,0.005,0.503c-0.002,0.042-0.008,0.084,0.042,0.084c0.058,0,0.114-0.006,0.17-0.006
				c0.195,0,0.391,0,0.586,0c0.061,0,0.153,0.02,0.209,0.002c0.044-0.014,0.039-0.186,0.044-0.225c0.094-0.712,0.35-1.4,0.788-1.973
				c0.894-1.17,2.341-1.823,3.683-2.323c1.462-0.545,2.973-0.947,4.45-1.445c2.595-0.877,5.564-2.211,6.234-5.156
				c0.303-1.331,0.086-2.733-0.648-3.888C47,61.981,46.311,61.344,45.544,60.814z"/>
			<path d="M56.527,30.056c-1.491-1.991-3.933-2.98-6.277-3.55c-1.111-0.272-2.239-0.453-3.373-0.584v2.647
				c0.973,0.139,1.941,0.32,2.886,0.577c1.348,0.364,2.742,0.886,3.82,1.798c0.461,0.389,0.858,0.858,1.111,1.408
				c0.302,0.653,0.348,1.359,0.277,2.067c-0.189,1.406-1.212,2.469-2.364,3.205c-1.241,0.791-2.661,1.308-4.058,1.742
				c-3.127,0.973-6.378,1.528-9.586,2.156c-1.614,0.317-3.228,0.641-4.827,1.03c-1.545,0.377-3.086,0.809-4.564,1.403
				c-2.583,1.041-5.248,2.794-5.728,5.755c-0.227,1.402,0.027,2.861,0.711,4.105c0.68,1.234,1.734,2.2,2.916,2.95
				c0.766,0.489,1.584,0.894,2.422,1.248c1.208-0.662,2.475-1.161,3.636-1.566c-0.867-0.288-1.725-0.6-2.564-0.959
				c-1.294-0.555-2.634-1.262-3.541-2.369c-0.866-1.056-1.18-2.641-0.489-3.87c0.63-1.122,1.842-1.817,2.973-2.341
				c1.414-0.655,2.93-1.083,4.438-1.464c1.6-0.405,3.219-0.733,4.838-1.05c3.206-0.628,6.433-1.194,9.572-2.116
				c1.492-0.439,2.97-0.967,4.35-1.692c1.256-0.659,2.453-1.506,3.32-2.644c0.85-1.114,1.333-2.472,1.359-3.873
				C57.813,32.63,57.392,31.211,56.527,30.056z"/>
		</g>
	</g>
	<g>
		<ellipse cx="30.449" cy="27.625" rx="3.528" ry="2.605"/>
		<ellipse cx="45.234" cy="27.625" rx="3.529" ry="2.605"/>
	</g>
</g>
</svg>
