<?xml version="1.0" encoding="iso-8859-1"?>
<!-- Generator: Adobe Illustrator 18.1.1, SVG Export Plug-In . SVG Version: 6.00 Build 0)  -->
<svg version="1.1" id="Layer_1" xmlns="http://www.w3.org/2000/svg" xmlns:xlink="http://www.w3.org/1999/xlink" x="0px" y="0px"
	 viewBox="0 0 301 101" style="enable-background:new 0 0 301 101;" xml:space="preserve">
<g>
	<rect x="0.5" y="0.5" style="fill:none;" width="100" height="100"/>
	<rect x="100.5" y="0.5" style="fill:none;" width="100" height="100"/>
	<rect x="200.5" y="0.5" style="fill:none;" width="100" height="100"/>
	<g>
		<path style="fill:#3498DB;" d="M76.056,50.665l2.011,9.947l-10.117-0.837l2.418-2.715l-7.275-6.471
			c-2.829,1.825-6.094,3.026-9.607,3.412v8.673h3.636l-6.098,8.116l-6.098-8.116h3.639v-8.673c-3.589-0.397-6.925-1.641-9.793-3.533
			l-7.409,6.592l2.415,2.715l-10.114,0.837l2.011-9.947l2.415,2.715l6.858-6.098c-0.591-0.617-1.147-1.264-1.668-1.948h5.03
			c3.316,3.132,7.792,5.05,12.712,5.05c4.924,0,9.397-1.918,12.716-5.05h5.027c-0.56,0.737-1.167,1.438-1.814,2.098l6.685,5.947
			L76.056,50.665z"/>
		<path style="fill:#34495E;" d="M75.349,70.739c0.874,0,2.212-1.231,2.212-2.749c0-1.518-0.56-2.745-2.212-2.745
			c-1.648,0-2.208,1.228-2.208,2.745C73.141,69.508,74.479,70.739,75.349,70.739z M77.177,70.129
			c-0.097,0.594-0.567,1.084-1.198,1.284v0.154c0,0.347-0.28,0.63-0.63,0.63c-0.347,0-0.627-0.284-0.627-0.63v-0.154
			c-0.63-0.2-1.101-0.69-1.198-1.284c-1.581,0.3-3.856,1.094-3.856,3.162v2.885c0,0,0.357,2.482,5.344,2.482h0.677
			c4.984,0,5.344-2.482,5.344-2.482v-2.885C81.033,71.223,78.758,70.429,77.177,70.129z M75.349,62.677
			c5.124,0,9.277,4.153,9.277,9.273c0,5.124-4.153,9.277-9.277,9.277c-5.12,0-9.273-4.153-9.273-9.277
			C66.076,66.83,70.229,62.677,75.349,62.677z"/>
		<path style="fill:#34495E;" d="M66.109,31.898v7.669c0,0-0.954,6.598-14.207,6.598l-1.805-0.003
			c-13.253,0-14.207-6.595-14.207-6.595v-7.669c0-5.507,6.048-7.615,10.254-8.416c0.343,2.078,2.385,3.676,4.857,3.676
			c2.468,0,4.513-1.598,4.857-3.676C60.062,24.283,66.109,26.391,66.109,31.898z M54.374,37.953l-2.645-9.71h-1.458l-2.645,9.71
			l3.376,4.683L54.374,37.953z"/>
		<path style="fill:#34495E;" d="M50.695,71.95c5.124,0,9.277,4.153,9.277,9.277c0,5.12-4.153,9.273-9.277,9.273
			c-5.12,0-9.273-4.153-9.273-9.273C41.422,76.103,45.575,71.95,50.695,71.95z M51.082,83.171c0.734,0,1.328-0.594,1.328-1.328
			c0-0.47-0.243-0.881-0.614-1.118V76.38c0-0.327-0.264-0.591-0.591-0.591c-0.323,0-0.587,0.264-0.587,0.591v4.223
			c-0.394,0.147-0.697,0.474-0.811,0.881l-6.274,1.501c-0.317,0.077-0.514,0.394-0.437,0.71c0.077,0.317,0.394,0.514,0.71,0.437
			l6.218-1.488C50.268,82.965,50.652,83.171,51.082,83.171z"/>
		<path style="fill:#34495E;" d="M51.002,10.5c4.386,0,5.874,3.269,5.874,7.302c0,4.036-3.556,7.305-5.874,7.305
			c-2.322,0-5.878-3.269-5.878-7.305C45.124,13.769,46.612,10.5,51.002,10.5z"/>
		<path style="fill:#34495E;" d="M25.647,62.677c5.124,0,9.277,4.153,9.277,9.273c0,5.124-4.153,9.277-9.277,9.277
			c-5.12,0-9.273-4.153-9.273-9.277C16.374,66.83,20.527,62.677,25.647,62.677z M30.784,73.585c0-1.585-1.031-2.538-3.646-3.269
			c-1.888-0.541-2.659-0.924-2.659-1.481c0-0.487,0.46-0.991,1.888-0.991c1.584,0,2.615,0.4,3.166,0.61l-0.017-1.968
			c0,0-1.081-0.537-2.532-0.574v-0.744H24.83v0.867c-2.348,0.347-3.713,1.548-3.713,3.096c0,1.688,1.605,2.555,3.956,3.182
			c1.648,0.437,2.352,0.854,2.352,1.515c0,0.677-0.857,1.077-2.132,1.077c-1.428,0-2.725-0.364-3.649-0.764l0.017,2.145
			c0,0,1.588,0.584,3.059,0.637v0.754h2.175v-0.894C29.423,76.453,30.784,75.132,30.784,73.585z"/>
	</g>
	<g>
		<path style="fill:#3498DB;" d="M190.613,25.366c0.366,5.801-4.041,10.804-9.845,11.167c-5.801,0.366-10.801-4.041-11.167-9.842
			c-0.366-5.804,4.041-10.804,9.845-11.17c2.131-0.134,4.155,0.377,5.883,1.365l-2.223,2.11c-1.064-0.453-2.247-0.674-3.477-0.595
			c-4.215,0.263-7.413,3.894-7.147,8.109c0.264,4.213,3.894,7.411,8.106,7.145c3.649-0.229,6.536-2.982,7.074-6.452l2.858-2.716
			C190.561,24.776,190.595,25.068,190.613,25.366z"/>
		<path style="fill:#3498DB;" d="M190.071,17.771c0.516,0.413,0.603,1.167,0.19,1.683l-8.752,10.975
			c-0.285,0.358-0.732,0.508-1.151,0.432c-0.403,0.008-0.803-0.184-1.038-0.548l-3.778-5.888c-0.358-0.556-0.195-1.296,0.361-1.652
			c0.556-0.358,1.296-0.198,1.654,0.358l2.993,4.663l7.84-9.834C188.8,17.444,189.554,17.36,190.071,17.771z"/>
		<path style="fill:#3498DB;" d="M190.071,42.042c0.516,0.413,0.603,1.167,0.19,1.683l-8.752,10.975
			c-0.285,0.358-0.732,0.508-1.151,0.432c-0.403,0.008-0.803-0.184-1.038-0.548l-3.778-5.888c-0.358-0.556-0.195-1.296,0.361-1.652
			c0.556-0.358,1.296-0.197,1.654,0.358l2.993,4.663l7.84-9.834C188.8,41.715,189.554,41.631,190.071,42.042z"/>
		<path style="fill:#3498DB;" d="M190.071,66.716c0.516,0.411,0.603,1.167,0.19,1.683l-8.752,10.975
			c-0.285,0.358-0.732,0.508-1.151,0.432c-0.403,0.008-0.803-0.184-1.038-0.548l-3.778-5.888c-0.358-0.556-0.195-1.296,0.361-1.652
			c0.556-0.358,1.296-0.197,1.654,0.358l2.993,4.66l7.84-9.834C188.8,66.39,189.554,66.305,190.071,66.716z"/>
		<path style="fill:#3498DB;" d="M179.628,42.672c-4.215,0.264-7.413,3.894-7.147,8.109c0.264,4.212,3.894,7.408,8.106,7.145
			c3.649-0.229,6.536-2.982,7.074-6.452l2.858-2.716c0.042,0.29,0.077,0.582,0.095,0.88c0.366,5.801-4.041,10.804-9.845,11.168
			c-5.801,0.366-10.801-4.041-11.167-9.845c-0.366-5.801,4.041-10.801,9.845-11.167c2.131-0.134,4.155,0.377,5.883,1.365
			l-2.223,2.11C182.041,42.814,180.858,42.593,179.628,42.672z"/>
		<path style="fill:#3498DB;" d="M190.613,74.311c0.366,5.798-4.041,10.804-9.845,11.167c-5.801,0.366-10.801-4.041-11.167-9.842
			c-0.366-5.804,4.041-10.804,9.845-11.17c2.131-0.134,4.155,0.377,5.883,1.365l-2.223,2.11c-1.064-0.456-2.247-0.674-3.477-0.595
			c-4.215,0.263-7.413,3.894-7.147,8.109c0.264,4.212,3.894,7.411,8.106,7.145c3.649-0.229,6.536-2.982,7.074-6.452l2.858-2.716
			C190.561,73.721,190.595,74.014,190.613,74.311z"/>
		<path style="fill:#34495E;" d="M168.031,57.862v14.637c0,0-1.823,12.585-27.111,12.585h-3.446
			c-25.288,0-27.108-12.585-27.108-12.585V57.862c0-10.506,11.541-14.529,19.563-16.057c0.656,3.965,4.555,7.013,9.268,7.013
			c4.713,0,8.612-3.048,9.268-7.013C156.486,43.333,168.031,47.356,168.031,57.862z M145.638,69.414l-5.047-18.523h-2.785
			l-5.048,18.523l6.439,8.939L145.638,69.414z"/>
		<path style="fill:#34495E;" d="M139.197,17.028c8.372,0,11.215,6.241,11.215,13.939s-6.789,13.939-11.215,13.939
			c-4.423,0-11.215-6.241-11.215-13.939S130.825,17.028,139.197,17.028z"/>
	</g>
	<g>
		<path style="fill:#34495E;" d="M286.866,42.768c1.37,0,1.837,1.022,1.837,2.284c0,1.265-1.113,2.287-1.837,2.287
			c-0.727,0-1.841-1.022-1.841-2.287C285.026,43.79,285.493,42.768,286.866,42.768z"/>
		<path style="fill:#34495E;" d="M287.093,48.324h-0.457l-0.826,3.039l1.056,1.465l1.056-1.465L287.093,48.324z M286.866,47.982
			c0.772,0,1.411-0.498,1.519-1.15c1.316,0.25,3.211,0.91,3.211,2.633v2.402c0,0-0.301,2.064-4.449,2.064h-0.565
			c-4.149,0-4.446-2.064-4.446-2.064v-2.402c0-1.723,1.895-2.382,3.208-2.633C285.452,47.482,286.095,47.982,286.866,47.982z"/>
		<path style="fill:#3498DB;" d="M279.047,48.138l-3.563,3.705l4.957,0.69c1.861,2.636,5.272,3.895,8.514,2.873
			c4.013-1.262,6.243-5.539,4.981-9.552c-1.262-4.013-5.539-6.243-9.553-4.981C281.128,41.895,279.047,44.9,279.047,48.138z
			 M277.642,48.223c-0.034-3.868,2.436-7.468,6.317-8.69c4.754-1.496,9.823,1.147,11.319,5.901s-1.147,9.82-5.901,11.315
			c-3.881,1.218-7.972-0.318-10.155-3.509l-6.013-0.866L277.642,48.223z"/>
		<path style="fill:#34495E;" d="M277.49,65.45c0.006,0.254,0.017,0.508,0.017,0.765c0,0.257-0.01,0.508-0.017,0.765
			c-0.098,0.091-0.2,0.179-0.301,0.267c-3.137,2.764-7.072,4.974-11.525,6.416c0.521-2.342,0.802-4.798,0.802-7.336
			c0-2.626-0.301-5.164-0.86-7.58c4.477,1.442,8.433,3.658,11.583,6.436C277.29,65.27,277.392,65.358,277.49,65.45z"/>
		<path style="fill:#34495E;" d="M255.086,42.007c12.094,0.917,21.714,10.693,22.384,22.857c-3.066-4.013-7.485-7.211-12.713-9.133
			C262.838,50.033,259.424,45.231,255.086,42.007z"/>
		<path style="fill:#34495E;" d="M264.841,76.667c5.191-1.925,9.58-5.113,12.628-9.102c-0.663,12.053-10.111,21.761-22.052,22.831
			C259.664,87.126,262.99,82.331,264.841,76.667z"/>
		<path style="fill:#3498DB;" d="M266.31,22.827c0,5.556-3.678,10.253-8.734,11.792l-3.522,7.329
			c-0.048-0.003-0.095-0.003-0.146-0.003l-3.515-7.326c-5.055-1.539-8.734-6.236-8.734-11.792c0-6.808,5.519-12.327,12.327-12.327
			C260.791,10.5,266.31,16.019,266.31,22.827z M257.153,32.738c4.196-1.34,7.238-5.272,7.238-9.911
			c0-5.746-4.66-10.405-10.405-10.405c-5.749,0-10.409,4.659-10.409,10.405c0,4.656,3.063,8.602,7.282,9.928l3.364,6.162
			L257.153,32.738z"/>
		<path style="fill:#34495E;" d="M263.319,65.781c0.048,3.028-0.234,5.965-0.802,8.754c-3.073,0.707-6.342,1.066-9.729,1.012
			c-2.511-0.041-4.95-0.305-7.285-0.772c-0.602-2.859-0.904-5.878-0.853-8.994c0.044-2.825,0.376-5.556,0.954-8.148
			c2.301-0.453,4.707-0.714,7.184-0.755c3.35-0.051,6.585,0.298,9.63,0.992C262.96,60.394,263.275,63.04,263.319,65.781z"/>
		<path style="fill:#34495E;" d="M261.748,77.635c-1.418,4.835-3.722,9.106-6.666,12.466c-0.098,0.115-0.203,0.23-0.304,0.345
			c-0.507,0.03-1.022,0.054-1.54,0.054c-0.088-0.095-0.176-0.193-0.257-0.291c-2.927-3.299-5.228-7.492-6.666-12.242
			c2.247,0.477,4.599,0.731,7.018,0.731C256.263,78.697,259.085,78.322,261.748,77.635z"/>
		<path style="fill:#34495E;" d="M254.744,42.315c3.008,3.33,5.384,7.59,6.866,12.446c-2.619-0.667-5.397-1.029-8.277-1.029
			c-2.369,0-4.67,0.244-6.872,0.704c1.448-4.595,3.702-8.646,6.527-11.857c0.186-0.217,0.382-0.43,0.579-0.64
			c0.115,0,0.227,0.003,0.341,0.007l0.075,0.152l0.071-0.149c0.125,0,0.247,0.003,0.369,0.01
			C254.531,42.078,254.639,42.196,254.744,42.315z"/>
		<path style="fill:#34495E;" d="M253.983,13.637c2,0,2.68,1.492,2.68,3.33c0,1.841-1.621,3.33-2.68,3.33
			c-1.055,0-2.676-1.489-2.676-3.33C251.306,15.129,251.983,13.637,253.983,13.637z"/>
		<path style="fill:#34495E;" d="M253.983,21.233c1.127,0,2.057-0.727,2.216-1.678c1.915,0.365,4.673,1.326,4.673,3.837v3.496
			c0,0-0.437,3.008-6.477,3.008h-0.822c-6.044,0-6.477-3.008-6.477-3.008v-3.496c0-2.511,2.758-3.472,4.673-3.837
			C251.925,20.502,252.859,21.233,253.983,21.233z M254.318,21.727h-0.666l-1.205,4.426l1.536,2.135l1.54-2.135L254.318,21.727z"/>
		<path style="fill:#34495E;" d="M252.981,41.936c-0.132,0.098-0.264,0.196-0.396,0.298c-4.071,3.123-7.299,7.648-9.201,12.997
			c-6.013,1.881-11.075,5.417-14.422,9.955C229.501,52.331,240.024,42.061,252.981,41.936z"/>
		<path style="fill:#34495E;" d="M243.297,77.168c1.898,5.499,5.194,10.141,9.37,13.319c-12.811-0.291-23.173-10.493-23.704-23.243
			C232.292,71.757,237.321,75.28,243.297,77.168z"/>
		<path style="fill:#34495E;" d="M241.5,66.326c0,2.666,0.311,5.245,0.886,7.695c-5.143-1.475-9.647-3.946-13.126-7.106
			c-0.105-0.088-0.21-0.186-0.311-0.281c-0.003-0.142-0.013-0.281-0.013-0.42c0-0.142,0.01-0.281,0.013-0.42
			c0.101-0.095,0.207-0.193,0.311-0.281c3.489-3.174,8.016-5.651,13.183-7.123C241.831,60.909,241.5,63.572,241.5,66.326z"/>
		<path style="fill:#3498DB;" d="M228.435,68.864l-5.458,2.666c-1.1,3.709-4.521,6.426-8.588,6.453
			c-4.984,0.037-9.051-3.976-9.085-8.96c-0.037-4.984,3.976-9.052,8.96-9.086c4.067-0.027,7.526,2.639,8.679,6.335L228.435,68.864z
			 M226.107,69.053l-4.527-2.43c-0.995-3.083-3.895-5.306-7.306-5.282c-4.21,0.031-7.597,3.465-7.566,7.671
			c0.027,4.21,3.465,7.597,7.671,7.566c3.398-0.024,6.26-2.267,7.221-5.346L226.107,69.053z"/>
		<path style="fill:#34495E;" d="M214.081,62.858c1.374,0,1.841,1.022,1.841,2.284c0,1.266-1.113,2.288-1.841,2.288
			c-0.724,0-1.838-1.022-1.838-2.288C212.243,63.88,212.71,62.858,214.081,62.858z"/>
		<path style="fill:#34495E;" d="M214.311,68.41h-0.457l-0.826,3.039l1.053,1.468l1.059-1.468L214.311,68.41z M214.081,68.072
			c0.775,0,1.414-0.501,1.523-1.151c1.316,0.251,3.208,0.91,3.208,2.633v2.402c0,0-0.298,2.064-4.446,2.064H213.8
			c-4.149,0-4.446-2.064-4.446-2.064v-2.402c0-1.722,1.895-2.382,3.208-2.633C212.67,67.571,213.309,68.072,214.081,68.072z"/>
	</g>
</g>
</svg>
