<?xml version="1.0" encoding="iso-8859-1"?>
<!-- Generator: Adobe Illustrator 18.1.1, SVG Export Plug-In . SVG Version: 6.00 Build 0)  -->
<svg version="1.1" id="Layer_1" xmlns="http://www.w3.org/2000/svg" xmlns:xlink="http://www.w3.org/1999/xlink" x="0px" y="0px"
	 viewBox="0 0 380 126.787" style="enable-background:new 0 0 380 126.787;" xml:space="preserve">
<g>
	<rect x="0" y="75.954" style="fill:#A4BCDB;" width="380" height="26.855"/>
	<path style="fill:#FFFFFF;" d="M12.597,115.26c0,0,3.878-0.846,7.785-9.914s10.585-24.727,10.585-24.727L62.343,9.345
		c0.25-0.567,0.818-0.959,1.436-0.912c0.727,0.055,1.488,0.635,1.246,2.963l-8.482,84.596c-0.079,0.789,0.656,1.414,1.422,1.207
		l1.267-0.341c0.565-0.152,1.12,0.278,1.112,0.864l-0.042,3.242c-0.005,0.416-0.26,0.788-0.645,0.945l-15.933,6.457
		c-0.835,0.338-1.741-0.297-1.706-1.197l0.112-2.947c0.021-0.545,0.341-1.034,0.832-1.271l3.683-1.776
		c1.05-0.506,1.768-1.515,1.902-2.672l3.035-26.077c0.065-0.557-0.497-0.977-1.013-0.756l-13.492,5.774
		c-0.373,0.16-0.675,0.444-0.854,0.808c-1.633,3.318-9.925,20.509-10.824,29.382c-0.039,0.383,0.28,0.705,0.663,0.666
		c1.005-0.103,2.818-0.136,3.955-0.147c0.653-0.006,1.212,0.454,1.334,1.096c0.262,1.375,0.299,3.916-2.549,4.694
		c-2.799,0.765-8.223,2.581-10.913,4.002s-4.374,2.69-5.292,1.946C11.678,119.145,10.782,115.858,12.597,115.26z M41.137,69.581
		l10.47-3.791c0.561-0.203,0.95-0.718,0.992-1.314l1.83-25.87c0.014-0.193-0.252-0.26-0.331-0.084L40.411,68.798
		C40.2,69.265,40.655,69.756,41.137,69.581z M65.841,87.034c0,0-2.391,6.24-2.537,8.019c-0.146,1.779,1.341,5.803,7.406,5.919
		c6.065,0.117,10.06-5.394,13.938-11.751c3.878-6.357,4.884-12.174,3.659-18.735s-8.31-10.76-6.998-17.67s3.834-9.812,6.605-9.637
		c2.77,0.175,2.77,6.182,6.123,6.502c3.353,0.321,3.295-6.24,3.557-8.252c0.262-2.012,0.058-3.732-3.12-4.111
		s-9.084,0.233-13.989,7.494c-4.906,7.261-6.199,15.134-5.631,20.258c0.569,5.124,9.874,15.312,5.631,22.475
		c-1.961,3.31-5.256,9.666-7.967,7.567s-3.368-4.002-3.171-6.67s-0.066-3.127-1.312-3.39C66.789,84.789,66.446,85.737,65.841,87.034
		z M99.928,49.827c-1.196,0.496-2.187-1.575-1.4-3.324c0.663-1.474,5.837-6.341,7.452-7.839c0.317-0.294,0.549-0.659,0.68-1.071
		c0.609-1.91,2.435-7.678,3.123-10.321c0.831-3.193,1.137-5.249,4.505-6.561s2.974,1.29,2.974,1.29l-2.544,9.347
		c-0.073,0.268,0.219,0.489,0.455,0.342c2.053-1.282,8.381-4.755,12.368-1.663c5.267,4.086,4.899,13.151-2.799,33.504
		s-17.058,26.535-21.403,28.722c-3.211,1.616-5.3-0.272-6.171-1.367c-0.205-0.257-0.613-0.175-0.707,0.14
		c-1.23,4.116-6.709,22.478-6.864,23.701c-0.175,1.378,1.443,0.831,4.286,0.744s1.903,2.763,1.903,2.763
		c-0.525,2.624-5.569,3.178-9.156,3.878c-2.679,0.523-7.67,3.226-10.023,4.561c-0.577,0.327-1.291-0.092-1.291-0.755v-2.029
		c0-0.711,0.349-1.376,0.933-1.781l4.86-3.064c0.488-0.338,0.85-0.827,1.03-1.393l21.99-70.564c0.074-0.238-0.211-0.424-0.395-0.255
		C102.712,47.769,100.785,49.472,99.928,49.827z M112.825,38.503c-0.254,0.256-0.434,0.565-0.542,0.91
		c-1.355,4.323-11.216,35.831-11.976,39.632c-0.816,4.082-2.07,14.623,6.896,5.963s12.291-23.138,14.128-29.523
		c1.837-6.386,4.899-18.251,1.48-20.36C119.653,33.176,114.731,36.58,112.825,38.503z M153.054,54.224
		c0.5-0.048,0.899,0.409,0.775,0.896c-0.721,2.82-3.554,11.239-13.107,19.842c-11.722,10.556-15.046-4.082-13.297-13.005
		c1.75-8.923,5.147-21.388,13.194-33.591s15.921-16.446,19.507-13.165c3.587,3.28,3.718,12.509-2.843,23.138
		c-6.561,10.628-17.342,14.696-18.917,15.287c-0.9,0.338-1.75,0.954-2.313,1.42c-0.438,0.362-0.766,0.842-0.931,1.386
		c-1.883,6.206-1.626,14.117,3.747,13.487c4.833-0.566,10.612-11.728,12.101-14.768c0.233-0.475,0.693-0.791,1.22-0.842
		L153.054,54.224z M138.098,49.884c7.105-2.871,14.461-13.647,17.173-21.736c1.21-3.608,1.901-6.767,0.706-8.449
		c-0.316-0.444-0.898-0.601-1.412-0.419c-9.924,3.52-15.976,24.629-17.33,29.838C137.103,49.628,137.609,50.081,138.098,49.884z
		 M197.377,41.488c1.225-2.916,2.129-4.316,0.496-5.219c-1.633-0.904-1.72,0.496-6.065,8.602c-2.392,4.463-3.732,5.876-4.454,6.246
		c-0.339,0.173-0.705-0.195-0.543-0.54c2.76-5.9,17.89-47.83,12.462-50.29c-7.805-3.537-23.123,26.885-23.123,26.885
		s7.756-20.149,2.42-20.47c-7.371-0.443-14.714,19.413-16.076,23.289c-0.127,0.361,0.065,0.752,0.426,0.878l1.153,0.404
		c0.456,0.159,0.955-0.072,1.128-0.522c0.985-2.56,4.135-10.474,6.444-13.195c0.284-0.335,0.829-0.085,0.747,0.347
		c-1.445,7.601-11.838,43.423-13.418,46.855c-1.691,3.674,1.924,4.957,4.49,1.983c2.486-2.881,19.254-54.027,29.048-58.341
		c0.427-0.188,0.9,0.162,0.842,0.624c-1.458,11.638-18.213,48.622-12.665,52.357C186.493,65.287,197.377,41.488,197.377,41.488z"/>
	<g>
		<path style="fill:#231E32;" d="M130.842,94.944l-0.791-2.598h-3.978l-0.791,2.598h-2.493l3.852-10.956h2.828l3.866,10.956H130.842
			z M129.499,90.406c-0.731-2.354-1.144-3.684-1.235-3.992c-0.093-0.309-0.158-0.553-0.198-0.731
			c-0.164,0.637-0.634,2.211-1.41,4.724H129.499z"/>
		<path style="fill:#231E32;" d="M142.678,91.913c0,0.985-0.354,1.762-1.063,2.329c-0.709,0.566-1.695,0.851-2.96,0.851
			c-1.164,0-2.193-0.219-3.09-0.657v-2.149c0.736,0.329,1.36,0.56,1.87,0.694s0.977,0.201,1.399,0.201
			c0.508,0,0.896-0.097,1.168-0.291c0.271-0.193,0.406-0.482,0.406-0.865c0-0.214-0.06-0.404-0.179-0.571s-0.295-0.327-0.526-0.481
			s-0.703-0.4-1.414-0.738c-0.667-0.313-1.167-0.615-1.5-0.903c-0.334-0.289-0.6-0.625-0.799-1.008s-0.299-0.831-0.299-1.344
			c0-0.965,0.327-1.724,0.981-2.276c0.654-0.552,1.559-0.828,2.713-0.828c0.567,0,1.108,0.067,1.624,0.201
			c0.515,0.135,1.053,0.324,1.615,0.567l-0.746,1.799c-0.582-0.238-1.063-0.405-1.444-0.5s-0.755-0.142-1.123-0.142
			c-0.438,0-0.773,0.102-1.008,0.306c-0.233,0.204-0.351,0.471-0.351,0.799c0,0.204,0.047,0.382,0.142,0.533
			c0.095,0.152,0.245,0.299,0.452,0.44c0.206,0.143,0.695,0.397,1.466,0.766c1.021,0.487,1.72,0.977,2.098,1.466
			C142.488,90.601,142.678,91.202,142.678,91.913z"/>
		<path style="fill:#231E32;" d="M153.722,87.436c0,1.174-0.367,2.072-1.101,2.694c-0.734,0.622-1.777,0.933-3.131,0.933h-0.993
			v3.881h-2.313V84.032h3.485c1.324,0,2.33,0.284,3.02,0.854C153.377,85.456,153.722,86.306,153.722,87.436z M148.497,89.167h0.762
			c0.712,0,1.244-0.141,1.597-0.422c0.354-0.281,0.53-0.69,0.53-1.228c0-0.543-0.148-0.943-0.444-1.202s-0.76-0.388-1.392-0.388
			h-1.053V89.167z"/>
		<path style="fill:#231E32;" d="M163.595,94.944h-6.284V84.032h6.284v1.896h-3.971v2.396h3.694v1.896h-3.694v2.814h3.971V94.944z"
			/>
		<path style="fill:#231E32;" d="M177.08,94.944h-2.941l-4.746-8.255h-0.067c0.095,1.458,0.142,2.498,0.142,3.12v5.135H167.4V84.032
			h2.918l4.739,8.172h0.053c-0.074-1.418-0.112-2.421-0.112-3.008v-5.164h2.083V94.944z"/>
		<path style="fill:#231E32;" d="M191.474,94.944l-2.627-8.561h-0.067c0.095,1.741,0.142,2.903,0.142,3.485v5.075h-2.067V84.032
			h3.149l2.583,8.344h0.045l2.738-8.344h3.15v10.911h-2.157v-5.165c0-0.243,0.004-0.524,0.011-0.843
			c0.008-0.318,0.041-1.164,0.101-2.538h-0.066l-2.814,8.546H191.474z"/>
		<path style="fill:#231E32;" d="M209.474,94.944l-0.791-2.598h-3.978l-0.791,2.598h-2.493l3.852-10.956h2.828l3.866,10.956H209.474
			z M208.131,90.406c-0.731-2.354-1.144-3.684-1.235-3.992c-0.093-0.309-0.158-0.553-0.198-0.731
			c-0.164,0.637-0.634,2.211-1.41,4.724H208.131z"/>
		<path style="fill:#231E32;" d="M217.182,90.757v4.187h-2.313V84.032h3.18c1.482,0,2.58,0.27,3.291,0.81
			c0.712,0.54,1.067,1.359,1.067,2.459c0,0.642-0.177,1.213-0.529,1.713c-0.354,0.5-0.854,0.892-1.501,1.176
			c1.643,2.453,2.712,4.037,3.21,4.754h-2.567l-2.605-4.187H217.182z M217.182,88.876h0.747c0.731,0,1.271-0.122,1.619-0.366
			c0.349-0.243,0.522-0.627,0.522-1.149c0-0.518-0.178-0.886-0.533-1.104c-0.356-0.219-0.907-0.328-1.653-0.328h-0.702V88.876z"/>
		<path style="fill:#231E32;" d="M235.265,94.944h-2.627l-2.858-4.598l-0.979,0.702v3.896h-2.313V84.032h2.313v4.992l0.911-1.283
			l2.955-3.709h2.567l-3.806,4.828L235.265,94.944z"/>
		<path style="fill:#231E32;" d="M244.45,94.944h-6.284V84.032h6.284v1.896h-3.971v2.396h3.694v1.896h-3.694v2.814h3.971V94.944z"/>
		<path style="fill:#231E32;" d="M252.465,94.944h-2.314v-8.986h-2.963v-1.925h8.24v1.925h-2.963V94.944z"/>
		<path style="fill:#231E32;" d="M258.635,94.944V84.032h2.313v10.911H258.635z"/>
		<path style="fill:#231E32;" d="M274.904,94.944h-2.941l-4.746-8.255h-0.067c0.095,1.458,0.142,2.498,0.142,3.12v5.135h-2.067
			V84.032h2.918l4.739,8.172h0.053c-0.074-1.418-0.112-2.421-0.112-3.008v-5.164h2.083V94.944z"/>
		<path style="fill:#231E32;" d="M283.321,88.816h4.329v5.658c-0.702,0.229-1.362,0.389-1.982,0.48
			c-0.619,0.093-1.252,0.139-1.899,0.139c-1.646,0-2.904-0.484-3.772-1.452s-1.303-2.356-1.303-4.168
			c0-1.762,0.504-3.135,1.512-4.12c1.008-0.984,2.404-1.478,4.19-1.478c1.12,0,2.199,0.224,3.239,0.672l-0.769,1.851
			c-0.796-0.397-1.625-0.597-2.485-0.597c-1,0-1.801,0.336-2.403,1.008c-0.602,0.671-0.903,1.574-0.903,2.709
			c0,1.185,0.243,2.089,0.729,2.713c0.484,0.624,1.19,0.937,2.115,0.937c0.482,0,0.973-0.05,1.471-0.149v-2.276h-2.067V88.816z"/>
		<path style="fill:#231E32;" d="M301.909,85.801c-0.87,0-1.545,0.327-2.022,0.981s-0.717,1.566-0.717,2.735
			c0,2.433,0.913,3.649,2.739,3.649c0.767,0,1.694-0.191,2.784-0.574v1.94c-0.896,0.373-1.896,0.56-3,0.56
			c-1.588,0-2.802-0.481-3.643-1.444s-1.262-2.345-1.262-4.146c0-1.135,0.207-2.129,0.62-2.982c0.413-0.853,1.006-1.507,1.78-1.963
			c0.773-0.455,1.68-0.683,2.72-0.683c1.06,0,2.125,0.257,3.194,0.769l-0.746,1.881c-0.408-0.193-0.818-0.363-1.231-0.507
			C302.713,85.873,302.308,85.801,301.909,85.801z"/>
		<path style="fill:#231E32;" d="M315.947,90.757c0,1.357-0.358,2.42-1.075,3.187s-1.714,1.149-2.993,1.149
			c-0.801,0-1.507-0.176-2.119-0.526s-1.082-0.854-1.41-1.512c-0.329-0.656-0.493-1.423-0.493-2.298c0-1.363,0.355-2.424,1.067-3.18
			c0.712-0.757,1.712-1.135,3-1.135c0.802,0,1.508,0.175,2.12,0.522c0.611,0.349,1.082,0.849,1.41,1.5
			C315.782,89.117,315.947,89.881,315.947,90.757z M310.178,90.757c0,0.825,0.136,1.45,0.406,1.873
			c0.271,0.423,0.713,0.634,1.325,0.634c0.607,0,1.044-0.21,1.31-0.63c0.267-0.421,0.399-1.047,0.399-1.877
			c0-0.826-0.134-1.445-0.403-1.858c-0.269-0.413-0.709-0.62-1.32-0.62c-0.607,0-1.045,0.205-1.313,0.616
			C310.313,89.305,310.178,89.926,310.178,90.757z"/>
		<path style="fill:#231E32;" d="M319.035,93.876c0-0.418,0.112-0.733,0.336-0.947s0.55-0.321,0.978-0.321
			c0.413,0,0.732,0.109,0.959,0.328s0.34,0.532,0.34,0.94c0,0.394-0.114,0.703-0.343,0.93c-0.229,0.226-0.548,0.339-0.956,0.339
			c-0.418,0-0.741-0.11-0.97-0.332C319.15,94.592,319.035,94.28,319.035,93.876z"/>
		<path style="fill:#231E32;" d="M330.921,94.944V84.032h2.313v9.001h4.426v1.91H330.921z"/>
		<path style="fill:#231E32;" d="M345.295,94.944h-2.314v-8.986h-2.963v-1.925h8.24v1.925h-2.963V94.944z"/>
		<path style="fill:#231E32;" d="M360.519,89.383c0,1.797-0.512,3.172-1.534,4.128c-1.022,0.955-2.499,1.433-4.43,1.433h-3.09
			V84.032h3.426c1.781,0,3.165,0.47,4.149,1.41C360.026,86.383,360.519,87.697,360.519,89.383z M358.115,89.443
			c0-2.343-1.035-3.515-3.105-3.515h-1.231v7.105h0.993C357,93.033,358.115,91.836,358.115,89.443z"/>
		<path style="fill:#231E32;" d="M363.808,93.876c0-0.418,0.112-0.733,0.336-0.947s0.55-0.321,0.978-0.321
			c0.413,0,0.732,0.109,0.959,0.328s0.34,0.532,0.34,0.94c0,0.394-0.114,0.703-0.343,0.93c-0.229,0.226-0.548,0.339-0.956,0.339
			c-0.418,0-0.741-0.11-0.97-0.332C363.922,94.592,363.808,94.28,363.808,93.876z"/>
	</g>
</g>
</svg>
