
<svg version="1.1" id="Layer_1" xmlns="http://www.w3.org/2000/svg" xmlns:xlink="http://www.w3.org/1999/xlink" x="0px" y="0px"
	 viewBox="0 0 543 181.171" style="enable-background:new 0 0 543 181.171;" xml:space="preserve">
<rect x="0" y="108.534" style="fill:#A4BCDB;" width="543" height="38.375"/>
<path style="fill:#00589F;" d="M18,164.701c0,0,5.542-1.208,11.125-14.167c5.583-12.958,15.125-35.333,15.125-35.333L89.084,13.353
	c0.357-0.81,1.169-1.37,2.052-1.303c1.038,0.078,2.127,0.907,1.78,4.234l-12.12,120.883c-0.113,1.128,0.938,2.02,2.032,1.725
	l1.81-0.487c0.808-0.218,1.6,0.398,1.589,1.234l-0.06,4.632c-0.008,0.594-0.371,1.126-0.922,1.35l-22.767,9.226
	c-1.193,0.483-2.487-0.425-2.438-1.711l0.16-4.212c0.03-0.779,0.487-1.478,1.189-1.816l5.262-2.538
	c1.5-0.723,2.526-2.164,2.718-3.819l4.337-37.263c0.093-0.797-0.71-1.396-1.448-1.08l-19.28,8.25
	c-0.533,0.228-0.965,0.634-1.221,1.155c-2.334,4.741-14.182,29.307-15.468,41.985c-0.056,0.547,0.401,1.008,0.948,0.952
	c1.436-0.147,4.027-0.194,5.651-0.21c0.934-0.009,1.732,0.649,1.906,1.566c0.374,1.965,0.428,5.595-3.642,6.708
	c-4,1.094-11.75,3.688-15.594,5.719s-6.25,3.844-7.563,2.781S15.406,165.555,18,164.701z M58.783,99.428l14.961-5.417
	c0.802-0.29,1.358-1.026,1.418-1.877l2.616-36.967c0.02-0.276-0.359-0.372-0.473-0.12L57.746,98.308
	C57.444,98.976,58.094,99.678,58.783,99.428z M94.083,124.367c0,0-3.417,8.917-3.625,11.458c-0.208,2.542,1.917,8.292,10.583,8.458
	c8.667,0.167,14.375-7.708,19.917-16.792c5.542-9.083,6.979-17.396,5.229-26.771s-11.875-15.375-10-25.25s5.479-14.021,9.438-13.771
	c3.958,0.25,3.958,8.833,8.75,9.292c4.792,0.458,4.708-8.917,5.083-11.792s0.083-5.333-4.458-5.875s-12.98,0.333-19.99,10.708
	c-7.01,10.375-8.859,21.625-8.046,28.947c0.813,7.322,14.11,21.88,8.046,32.115c-2.802,4.729-7.51,13.813-11.385,10.813
	s-4.813-5.719-4.531-9.531s-0.094-4.469-1.875-4.844S94.948,122.513,94.083,124.367z M142.792,71.201
	c-1.708,0.708-3.125-2.25-2-4.75c0.948-2.106,8.341-9.061,10.648-11.201c0.453-0.42,0.784-0.941,0.972-1.53
	c0.87-2.729,3.48-10.972,4.463-14.748c1.188-4.563,1.625-7.5,6.438-9.375s4.25,1.844,4.25,1.844l-3.635,13.356
	c-0.104,0.383,0.313,0.699,0.65,0.488c2.933-1.832,11.976-6.795,17.673-2.376c7.526,5.838,7,18.792-4,47.875
	s-24.375,37.917-30.583,41.042c-4.589,2.31-7.573-0.389-8.817-1.953c-0.293-0.368-0.875-0.25-1.01,0.2
	c-1.758,5.881-9.586,32.12-9.808,33.868c-0.25,1.969,2.063,1.188,6.125,1.063s2.719,3.948,2.719,3.948
	c-0.75,3.75-7.958,4.542-13.083,5.542c-3.829,0.747-10.96,4.61-14.322,6.517c-0.824,0.467-1.844-0.132-1.844-1.079v-2.899
	c0-1.016,0.498-1.967,1.333-2.545l6.945-4.379c0.697-0.482,1.214-1.182,1.471-1.99l31.422-100.832
	c0.106-0.34-0.302-0.605-0.565-0.365C146.77,68.259,144.016,70.693,142.792,71.201z M161.221,55.019
	c-0.363,0.366-0.62,0.808-0.774,1.3c-1.936,6.177-16.027,51.201-17.113,56.632c-1.167,5.833-2.958,20.896,9.854,8.521
	s17.563-33.063,20.188-42.188s7-26.08,2.115-29.094C170.978,47.406,163.944,52.271,161.221,55.019z M218.706,77.484
	c0.714-0.069,1.285,0.585,1.107,1.28c-1.03,4.03-5.078,16.06-18.729,28.354c-16.75,15.083-21.5-5.833-19-18.583
	s7.354-30.563,18.854-48s22.75-23.5,27.875-18.812s5.313,17.875-4.063,33.063s-24.781,21-27.031,21.844
	c-1.286,0.482-2.501,1.363-3.306,2.029c-0.625,0.517-1.094,1.203-1.33,1.98c-2.69,8.868-2.323,20.172,5.355,19.272
	c6.907-0.809,15.164-16.759,17.292-21.103c0.333-0.679,0.99-1.13,1.743-1.203L218.706,77.484z M197.335,71.281
	c10.153-4.102,20.664-19.5,24.54-31.06c1.729-5.156,2.716-9.67,1.009-12.073c-0.451-0.635-1.283-0.859-2.017-0.598
	c-14.181,5.03-22.828,35.194-24.764,42.637C195.913,70.916,196.636,71.563,197.335,71.281z M282.042,59.284
	c1.75-4.167,3.042-6.167,0.708-7.458s-2.458,0.708-8.667,12.292c-3.418,6.377-5.333,8.397-6.364,8.925
	c-0.484,0.248-1.007-0.279-0.776-0.772c3.944-8.431,25.563-68.347,17.807-71.861c-11.153-5.054-33.042,38.417-33.042,38.417
	s11.083-28.792,3.458-29.25c-10.533-0.633-21.026,27.741-22.971,33.278c-0.181,0.516,0.093,1.075,0.609,1.255l1.648,0.577
	c0.651,0.228,1.364-0.103,1.612-0.746c1.408-3.659,5.908-14.966,9.209-18.855c0.406-0.479,1.184-0.122,1.067,0.495
	c-2.065,10.862-16.916,62.05-19.173,66.954c-2.417,5.25,2.75,7.083,6.417,2.833c3.552-4.117,27.512-77.201,41.508-83.366
	c0.609-0.268,1.286,0.231,1.203,0.892c-2.083,16.63-26.025,69.478-18.098,74.816C266.489,93.292,282.042,59.284,282.042,59.284z"/>
<g>
	<path style="fill:#231E32;" d="M186.967,135.67l-1.13-3.711h-5.685l-1.13,3.711h-3.562l5.503-15.656h4.042l5.524,15.656H186.967z
		 M185.047,129.186c-1.045-3.361-1.634-5.264-1.765-5.705c-0.132-0.441-0.226-0.789-0.283-1.045c-0.235,0.91-0.907,3.16-2.016,6.75
		H185.047z"/>
	<path style="fill:#231E32;" d="M203.879,131.34c0,1.408-0.506,2.518-1.52,3.328s-2.423,1.215-4.229,1.215
		c-1.664,0-3.136-0.313-4.416-0.938v-3.072c1.052,0.471,1.943,0.801,2.671,0.992c0.729,0.191,1.396,0.289,2,0.289
		c0.725,0,1.281-0.139,1.669-0.416c0.387-0.277,0.581-0.689,0.581-1.238c0-0.305-0.085-0.576-0.256-0.814
		c-0.17-0.238-0.421-0.469-0.752-0.689c-0.331-0.219-1.004-0.572-2.021-1.055c-0.953-0.449-1.667-0.879-2.144-1.291
		c-0.477-0.412-0.857-0.893-1.141-1.439s-0.427-1.188-0.427-1.92c0-1.379,0.468-2.463,1.403-3.252
		c0.935-0.789,2.227-1.186,3.876-1.186c0.811,0,1.583,0.098,2.32,0.289c0.736,0.191,1.505,0.463,2.309,0.811l-1.066,2.57
		c-0.832-0.342-1.52-0.58-2.063-0.715s-1.079-0.203-1.605-0.203c-0.626,0-1.106,0.146-1.44,0.438
		c-0.334,0.291-0.501,0.672-0.501,1.141c0,0.293,0.068,0.547,0.203,0.764c0.135,0.217,0.35,0.426,0.646,0.629
		c0.295,0.203,0.993,0.566,2.096,1.094c1.457,0.695,2.456,1.395,2.997,2.096C203.609,129.465,203.879,130.324,203.879,131.34z"/>
	<path style="fill:#231E32;" d="M219.661,124.941c0,1.678-0.524,2.961-1.573,3.85s-2.54,1.334-4.474,1.334h-1.418v5.545h-3.306
		v-15.592h4.98c1.891,0,3.329,0.408,4.314,1.221C219.169,122.113,219.661,123.328,219.661,124.941z M212.196,127.416h1.088
		c1.017,0,1.777-0.201,2.282-0.604c0.504-0.4,0.757-0.986,0.757-1.754c0-0.775-0.211-1.348-0.634-1.717
		c-0.423-0.369-1.086-0.555-1.989-0.555h-1.503V127.416z"/>
	<path style="fill:#231E32;" d="M233.768,135.67h-8.979v-15.592h8.979v2.709h-5.673v3.424h5.279v2.709h-5.279v4.02h5.673V135.67z"/>
	<path style="fill:#231E32;" d="M253.038,135.67h-4.202l-6.783-11.795h-0.096c0.135,2.084,0.203,3.568,0.203,4.457v7.338h-2.954
		v-15.592h4.17l6.772,11.678h0.075c-0.106-2.025-0.16-3.459-0.16-4.297v-7.381h2.975V135.67z"/>
	<path style="fill:#231E32;" d="M273.607,135.67l-3.754-12.232h-0.096c0.135,2.488,0.203,4.148,0.203,4.98v7.252h-2.954v-15.592h4.5
		l3.69,11.924h0.063l3.914-11.924h4.501v15.592h-3.082v-7.379c0-0.35,0.005-0.75,0.016-1.205s0.059-1.664,0.145-3.627h-0.097
		l-4.021,12.211H273.607z"/>
	<path style="fill:#231E32;" d="M299.328,135.67l-1.131-3.711h-5.685l-1.13,3.711h-3.563l5.503-15.656h4.042l5.524,15.656H299.328z
		 M297.408,129.186c-1.045-3.361-1.634-5.264-1.766-5.705c-0.131-0.441-0.226-0.789-0.282-1.045c-0.234,0.91-0.906,3.16-2.016,6.75
		H297.408z"/>
	<path style="fill:#231E32;" d="M310.343,129.688v5.982h-3.307v-15.592h4.544c2.118,0,3.687,0.387,4.703,1.158
		s1.524,1.941,1.524,3.514c0,0.916-0.252,1.732-0.757,2.447s-1.22,1.273-2.144,1.68c2.347,3.506,3.875,5.77,4.586,6.793h-3.669
		l-3.722-5.982H310.343z M310.343,127h1.066c1.045,0,1.816-0.174,2.314-0.523c0.497-0.348,0.746-0.895,0.746-1.643
		c0-0.738-0.254-1.264-0.763-1.578c-0.508-0.313-1.295-0.469-2.362-0.469h-1.002V127z"/>
	<path style="fill:#231E32;" d="M336.181,135.67h-3.754l-4.085-6.568l-1.396,1.002v5.566h-3.307v-15.592h3.307v7.135l1.301-1.834
		l4.224-5.301h3.669l-5.439,6.9L336.181,135.67z"/>
	<path style="fill:#231E32;" d="M349.308,135.67h-8.98v-15.592h8.98v2.709h-5.674v3.424h5.279v2.709h-5.279v4.02h5.674V135.67z"/>
	<path style="fill:#231E32;" d="M360.76,135.67h-3.307v-12.84h-4.233v-2.752h11.773v2.752h-4.233V135.67z"/>
	<path style="fill:#231E32;" d="M369.576,135.67v-15.592h3.307v15.592H369.576z"/>
	<path style="fill:#231E32;" d="M392.824,135.67h-4.202l-6.783-11.795h-0.096c0.135,2.084,0.202,3.568,0.202,4.457v7.338h-2.954
		v-15.592h4.17l6.772,11.678h0.075c-0.107-2.025-0.16-3.459-0.16-4.297v-7.381h2.976V135.67z"/>
	<path style="fill:#231E32;" d="M404.852,126.914h6.187v8.084c-1.003,0.328-1.947,0.557-2.832,0.688
		c-0.885,0.133-1.79,0.197-2.714,0.197c-2.354,0-4.15-0.691-5.392-2.074c-1.24-1.383-1.86-3.367-1.86-5.955
		c0-2.518,0.72-4.48,2.159-5.887c1.439-1.408,3.436-2.113,5.988-2.113c1.6,0,3.143,0.32,4.629,0.961l-1.099,2.645
		c-1.138-0.568-2.321-0.854-3.552-0.854c-1.429,0-2.573,0.48-3.434,1.439c-0.86,0.961-1.291,2.252-1.291,3.873
		c0,1.691,0.347,2.984,1.04,3.875c0.693,0.893,1.701,1.34,3.023,1.34c0.689,0,1.39-0.072,2.102-0.215v-3.252h-2.955V126.914z"/>
	<path style="fill:#231E32;" d="M431.413,122.606c-1.244,0-2.207,0.469-2.89,1.402c-0.683,0.936-1.024,2.238-1.024,3.91
		c0,3.477,1.305,5.215,3.914,5.215c1.095,0,2.421-0.273,3.979-0.822v2.773c-1.28,0.533-2.709,0.799-4.287,0.799
		c-2.269,0-4.004-0.688-5.205-2.063c-1.201-1.377-1.802-3.352-1.802-5.924c0-1.621,0.295-3.041,0.885-4.262
		c0.59-1.219,1.438-2.154,2.544-2.805c1.105-0.65,2.4-0.977,3.887-0.977c1.515,0,3.036,0.367,4.564,1.1l-1.066,2.688
		c-0.583-0.277-1.169-0.52-1.76-0.725C432.562,122.709,431.983,122.606,431.413,122.606z"/>
	<path style="fill:#231E32;" d="M451.473,129.688c0,1.941-0.512,3.459-1.536,4.555c-1.023,1.094-2.449,1.641-4.276,1.641
		c-1.145,0-2.154-0.25-3.028-0.75c-0.875-0.502-1.547-1.223-2.017-2.16c-0.469-0.939-0.703-2.033-0.703-3.285
		c0-1.947,0.508-3.463,1.524-4.543s2.446-1.621,4.288-1.621c1.145,0,2.154,0.248,3.028,0.746c0.875,0.498,1.547,1.213,2.016,2.145
		C451.238,127.346,451.473,128.436,451.473,129.688z M443.229,129.688c0,1.18,0.193,2.072,0.581,2.678
		c0.388,0.604,1.019,0.906,1.894,0.906c0.867,0,1.491-0.301,1.871-0.902c0.381-0.6,0.571-1.494,0.571-2.682
		c0-1.18-0.192-2.064-0.576-2.656c-0.384-0.59-1.014-0.885-1.888-0.885c-0.867,0-1.493,0.293-1.877,0.881
		C443.421,127.613,443.229,128.5,443.229,129.688z"/>
	<path style="fill:#231E32;" d="M455.886,134.145c0-0.596,0.16-1.047,0.479-1.354c0.32-0.307,0.786-0.459,1.397-0.459
		c0.59,0,1.047,0.156,1.37,0.469c0.323,0.314,0.485,0.762,0.485,1.344c0,0.563-0.164,1.006-0.49,1.328
		c-0.327,0.324-0.782,0.486-1.365,0.486c-0.598,0-1.06-0.158-1.387-0.475S455.886,134.721,455.886,134.145z"/>
	<path style="fill:#231E32;" d="M472.87,135.67v-15.592h3.307v12.861h6.324v2.73H472.87z"/>
	<path style="fill:#231E32;" d="M493.408,135.67h-3.307v-12.84h-4.233v-2.752h11.773v2.752h-4.233V135.67z"/>
	<path style="fill:#231E32;" d="M515.162,127.725c0,2.566-0.73,4.533-2.191,5.898c-1.461,1.365-3.571,2.047-6.329,2.047h-4.416
		v-15.592h4.896c2.545,0,4.521,0.672,5.93,2.016C514.459,123.438,515.162,125.314,515.162,127.725z M511.729,127.811
		c0-3.35-1.479-5.023-4.437-5.023h-1.76v10.152h1.418C510.136,132.939,511.729,131.231,511.729,127.811z"/>
	<path style="fill:#231E32;" d="M519.864,134.145c0-0.596,0.16-1.047,0.479-1.354c0.32-0.307,0.786-0.459,1.397-0.459
		c0.59,0,1.047,0.156,1.37,0.469c0.323,0.314,0.485,0.762,0.485,1.344c0,0.563-0.164,1.006-0.49,1.328
		c-0.327,0.324-0.782,0.486-1.365,0.486c-0.598,0-1.06-0.158-1.387-0.475S519.864,134.721,519.864,134.145z"/>
</g>
</svg>
