<?xml version="1.0" encoding="iso-8859-1"?>
<!-- Generator: Adobe Illustrator 18.1.1, SVG Export Plug-In . SVG Version: 6.00 Build 0)  -->
<svg version="1.1" id="Layer_1" xmlns="http://www.w3.org/2000/svg" xmlns:xlink="http://www.w3.org/1999/xlink" x="0px" y="0px"
	 viewBox="0 0 58.546 60.035" style="enable-background:new 0 0 58.546 60.035;" xml:space="preserve">
<g>
	<path d="M50.126,8.106c0.364-0.146,0.622-0.501,0.622-0.918c0-0.546-0.443-0.99-0.99-0.99h-0.352v-4.82
		C49.407,0.617,48.789,0,48.028,0h-7.201c-0.761,0-1.379,0.617-1.379,1.378v4.82h-0.352c-0.547,0-0.99,0.443-0.99,0.99
		c0,0.417,0.259,0.772,0.623,0.918c-1.225,0.88-2.112,2.036-2.476,3.343h16.347C52.237,10.141,51.35,8.986,50.126,8.106z
		 M44.428,2.049c1.266,0,2.292,1.026,2.292,2.292h-4.583C42.136,3.075,43.162,2.049,44.428,2.049z"/>
	<path d="M28.772,0H1.984C0.888,0,0,0.888,0,1.984v7.48c0,1.096,0.888,1.984,1.984,1.984h26.788c1.096,0,1.984-0.888,1.984-1.984
		v-7.48C30.757,0.888,29.868,0,28.772,0z M20.125,3.307l-4.067,4.835h-2.515l4.067-4.835H20.125z M3.307,3.307h10.266L9.506,8.142
		H3.307V3.307z M27.45,8.142H17.78l4.067-4.835h5.603L27.45,8.142z"/>
	<path d="M58.546,24.029l-2.187-5.645c0.843-0.173,1.478-0.92,1.478-1.814c0-1.023-0.829-1.852-1.852-1.852H32.871
		c-1.023,0-1.852,0.829-1.852,1.852c0,0.895,0.634,1.641,1.478,1.814l-2.187,5.645l0,15.491c2.516,0.84,4.672,2.385,6.123,4.423
		c0.424-0.034,0.85-0.052,1.277-0.052c0.611,0,1.212,0.039,1.803,0.108c-1.376-1.979-2.236-4.776-2.235-7.88
		c0-5.995,3.201-10.854,7.15-10.854c3.949,0,7.15,4.86,7.15,10.854c0,4.992-2.22,9.194-5.242,10.462
		c3.182,2.258,5.226,5.731,5.226,9.623c0,1.308-0.231,2.582-0.678,3.808h5.101c1.023,0,1.852-0.829,1.852-1.852
		c0-0.895-0.634-1.641-1.478-1.814l2.187-5.645L58.546,24.029z"/>
	<path d="M13.504,19.237v3.296h-0.11c-1.096,0-1.984,0.888-1.984,1.984v22.879c0.836-0.361,1.723-0.642,2.651-0.829
		c0.899-2.558,2.798-4.703,5.286-6.084V24.517c0-1.096-0.888-1.984-1.984-1.984h-0.11v-3.296h2.007l3.112-4.451H8.385l3.113,4.451
		H13.504z"/>
	<path d="M37.71,47.199c-1.063,0-2.09,0.136-3.059,0.386c-1.163-3.168-4.627-5.467-8.72-5.467c-4.921,0-8.932,3.322-9.128,7.484
		l-0.705,0.025c-4.721,0.304-8.442,3.669-8.442,7.778c0,0.923,0.189,1.808,0.534,2.63h39.068c0.637-1.168,0.996-2.468,0.996-3.831
		C48.255,51.23,43.534,47.199,37.71,47.199z M16.714,53.304c-0.84,0.55-2.916,1.145-3.566,3.392
		c-0.278,0.962-1.382,0.945-1.736,0.806c-0.475-0.186-0.381-0.774-0.381-0.774c0.402-2.003,2.554-3.611,5.236-3.798
		C16.267,52.93,17.375,52.87,16.714,53.304z M22.771,49.582c-0.286,0.516-0.758,1.311-1.848,1.312
		c-1.046,0.001-0.816-1.136-0.816-1.136c0.113-2.389,2.726-4.333,5.825-4.333c0.594,0,1.173,0.071,1.721,0.204
		C29.118,45.985,23.654,46.587,22.771,49.582z"/>
</g>
</svg>
