<?xml version="1.0" encoding="iso-8859-1"?>
<!-- Generator: Adobe Illustrator 18.1.1, SVG Export Plug-In . SVG Version: 6.00 Build 0)  -->
<svg version="1.1" id="Layer_1" xmlns="http://www.w3.org/2000/svg" xmlns:xlink="http://www.w3.org/1999/xlink" x="0px" y="0px"
	 viewBox="0 0 89.639 79.329" style="enable-background:new 0 0 89.639 79.329;" xml:space="preserve">
<g>
	<path d="M43.168,46.146H84.09c0.555,0,1.57-0.109,1.57-0.664v-3.196c0-1.013-0.624-1.949-1.215-2.691
		c-0.59-0.741-1.569-1.285-2.562-1.517c-5.667-1.321-11.962-1.981-18.184-1.981c-6.221,0-12.481,0.66-18.148,1.981
		c-0.993,0.231-1.599,0.776-2.189,1.517c-0.592,0.742-0.702,1.678-0.702,2.691v3.196C42.66,46.037,42.613,46.146,43.168,46.146z
		 M46.66,42.82c0-1.013-0.042-1.949,0.549-2.691c0.59-0.741,1.236-1.285,2.229-1.517c0.4-0.093,0.705-0.183,1.108-0.269
		c0.238-0.051,0.425,0.071,0.521,0.295c0.096,0.224-0.004,0.478-0.205,0.615c-0.361,0.244-0.34,0.54-0.608,0.876
		c-0.592,0.742-0.594,1.678-0.594,2.691v1.91c0,0.277-0.931-0.584-1.208-0.584h-2.057c-0.277,0,0.265,0.861,0.265,0.584V42.82z"/>
	<path d="M88.532,54.789c-0.489-1.522-1.927-5.295-3.097-6.782c-0.197-0.251-0.472-0.861-0.791-0.861H42.615
		c-0.319,0-0.594,0.611-0.791,0.861c-1.17,1.486-2.608,5.021-3.097,6.543c-0.72,2.244-1.108,4.739-1.108,7.195
		c0,3.211,0.66,6.339,1.859,9.152c1.243,2.917,3.067,5.586,5.337,7.822c0.419,0.413,0.885,0.313,1.396,0.522
		c0.514,0.211,1.065-0.096,1.652-0.096h31.533c0.587,0,1.138,0.321,1.652,0.111c0.511-0.209,0.977-0.307,1.396-0.721
		c2.27-2.236,4.094-4.769,5.337-7.685c1.199-2.813,1.859-5.828,1.859-9.039C89.639,59.355,89.252,57.033,88.532,54.789z
		 M47.875,74.488c-0.091,0.163-0.252-0.341-0.439-0.341h-1.142c-0.175,0-0.325,0.517-0.421,0.371
		c-2.492-3.797-4.523-7.874-4.523-12.419c0-2.457,0.387-4.683,1.108-6.926c0.329-1.024,1.088-3.036,1.906-4.575
		c0.09-0.169,0.254-0.451,0.445-0.451h1.93c0.18,0,0.335,0.345,0.429,0.499s0.102,0.46,0.021,0.62
		c-0.723,1.429-1.369,3.07-1.666,3.993c-0.72,2.244-1.108,4.652-1.108,7.108c0,3.211,0.66,6.296,1.859,9.108
		c0.455,1.068,0.989,1.808,1.593,2.796C47.963,74.429,47.967,74.324,47.875,74.488z"/>
	<path d="M29.936,72.146H4.682c-3.63,0-2.228,7,0.712,7h11.914H29.23C32.192,79.146,33.544,72.146,29.936,72.146z M7.873,78.298
		c-0.095,0.152-0.248-0.151-0.427-0.151H6.915c-0.337,0-0.627,0.218-0.791-0.077c-0.651-1.166-0.937-2.869-0.67-4.111
		c0.091-0.422,0.454-0.812,0.886-0.812h0.072c0.271,0,0.504,0.396,0.683,0.6c0.178,0.205,0.252,0.595,0.215,0.864
		c-0.15,1.097,0.084,2.285,0.589,3.321C7.977,78.092,7.968,78.146,7.873,78.298z"/>
	<path d="M11.395,16.146h11.824c0.166,0,0.441,0.933,0.441,0.766v-5.525c0-0.789,0-1.464-1-1.624V8.756
		c0-0.63-0.882-1.609-1.457-2.609h-7.792c-0.575,1-0.751,1.98-0.751,2.609v1.008c0,0.159-1,0.839-1,1.624v5.525
		C11.66,17.079,11.229,16.146,11.395,16.146z M21.66,11.894c0-0.33,0.17-0.599,0.5-0.599s0.5,0.27,0.5,0.599v3.53
		c0,0.329-0.17,0.6-0.5,0.6s-0.5-0.27-0.5-0.6V11.894z M19.66,11.894c0-0.33,0.17-0.599,0.5-0.599s0.5,0.27,0.5,0.599
		c0,1.193,0,2.337,0,3.53c0,0.33-0.17,0.6-0.5,0.6s-0.5-0.27-0.5-0.6C19.66,14.231,19.66,13.088,19.66,11.894z M17.66,11.894
		c0-0.33,0.17-0.599,0.5-0.599s0.5,0.27,0.5,0.599c0,1.193,0,2.337,0,3.53c0,0.33-0.17,0.6-0.5,0.6s-0.5-0.27-0.5-0.6
		C17.66,14.231,17.66,13.088,17.66,11.894z M14.66,11.894c0-0.33,0.67-0.599,1-0.599s1,0.27,1,0.599c0,1.193,0,2.337,0,3.53
		c0,0.33-0.67,0.6-1,0.6s-1-0.27-1-0.6C14.66,14.231,14.66,13.088,14.66,11.894z M12.66,11.894c0-0.33,0.17-0.599,0.5-0.599
		c0.33,0,0.5,0.27,0.5,0.599v3.53c0,0.329-0.17,0.6-0.5,0.6c-0.33,0-0.5-0.27-0.5-0.6V11.894z"/>
	<path d="M25.66,20.507v-0.105c0-0.723-1.398-2.255-2.012-2.255H10.953l0.346,0.323c-0.596,0.3-0.639,1.223-0.639,1.932v0.105
		c-14,5.18-11.04,24.771-8.605,39.117c0.678,3.996,1.101,7.227,1.238,9.915c0.027,0.536,0.285,0.608,0.822,0.608H30.5
		c0.536,0,0.978-0.072,1.005-0.608c0.137-2.688,1.229-6.093,1.907-10.089C35.847,45.104,39.66,25.686,25.66,20.507z M12.362,22.452
		C0.295,28.529,4.106,45.872,6.44,59.623c0.542,3.197,1.04,6.127,1.287,8.548c0.027,0.264-0.051-0.009-0.229,0.188
		c-0.178,0.197-0.407-0.213-0.673-0.213H6.737c-0.468,0-0.857,0.159-0.902-0.306c-0.24-2.455-0.749-5.195-1.305-8.473
		c-2.348-13.833-6.182-31.188,6.14-37.151c0.506-0.245,0.995-0.331,1.52-0.398c0.146-0.019,0.281,0.099,0.326,0.241
		C12.56,22.201,12.496,22.384,12.362,22.452z M13.386,20.146h-0.72c-0.359,0-0.653-0.641-0.653-1c0-0.359,0.294-1,0.653-1h0.72
		c0.359,0,0.653,0.641,0.653,1C14.039,19.506,13.745,20.146,13.386,20.146z"/>
	<path d="M14.272,2.574c0.315,0.124,1.388,0.21,1.388,0.272v2.971c0,0.166-0.488-0.671-0.322-0.671h3.937
		c0.167,0,0.384,0.837,0.384,0.671V2.998c1-0.008,0.679-0.019,1.038-0.029c3.489-0.1,7.039-0.21,10.169,1.604
		c0.226,0.131,0.496,0.082,0.664-0.104c0.401-0.399,0.726-1.193,0.726-1.759c0-0.203-0.114-0.379-0.278-0.473
		C27.521-0.582,18.416,0.064,13,0.064c-0.3,0-0.388,0.243-0.388,0.543C12.612,1.532,13.459,2.256,14.272,2.574z"/>
</g>
</svg>
